<mxfile host="app.diagrams.net" modified="2023-04-26T12:19:25.469Z" agent="Mozilla/5.0 (Windows NT 10.0; Win64; x64) AppleWebKit/537.36 (KHTML, like Gecko) Chrome/112.0.0.0 Safari/537.36" version="21.2.2" etag="8vJCmyKSEMppbTdFmoIo" type="github">
  <diagram name="Page-1" id="p1mobohHn-rAi2GdAl_f">
    <mxGraphModel>
      <root>
        <mxCell id="0" />
        <mxCell id="1" parent="0" />
      </root>
    </mxGraphModel>
  </diagram>
</mxfile>
